<?xml version="1.0" standalone="no"?>
<!DOCTYPE svg PUBLIC "-//W3C//DTD SVG 20010904//EN"
 "http://www.w3.org/TR/2001/REC-SVG-20010904/DTD/svg10.dtd">
<svg version="1.0" xmlns="http://www.w3.org/2000/svg"
 width="40.000000pt" height="40.000000pt" viewBox="0 0 40.000000 40.000000"
 preserveAspectRatio="xMidYMid meet">

<g transform="translate(0.000000,40.000000) scale(0.100000,-0.100000)"
fill="#000000" stroke="none">
<path d="M154 380 c-108 -25 -162 -120 -137 -240 l6 -33 19 24 19 24 -7 -26
c-5 -22 -1 -27 19 -33 13 -3 39 -1 58 4 44 13 48 12 25 -5 -11 -8 -40 -15 -65
-15 l-46 -1 29 -23 c38 -32 100 -49 146 -41 37 6 120 52 120 66 0 4 -19 5 -42
3 -45 -4 -43 0 5 10 36 8 34 28 -9 76 -20 22 -32 40 -27 40 15 0 61 -53 73
-85 14 -36 26 -21 36 41 20 132 -97 244 -222 214z m65 -46 c12 -15 21 -32 21
-38 0 -6 -11 2 -24 19 -24 29 -24 30 -45 11 -11 -10 -23 -34 -27 -52 -3 -19
-10 -34 -15 -34 -13 0 0 49 23 88 24 39 40 40 67 6z m-109 -59 c0 -2 -11 -15
-25 -29 -33 -33 -32 -48 6 -91 18 -20 29 -39 25 -42 -11 -12 -65 61 -66 88 0
26 34 79 51 79 5 0 9 -2 9 -5z m195 -20 c25 -24 34 -65 15 -65 -5 0 -10 11
-10 25 0 32 -41 60 -76 51 -17 -5 -23 -3 -19 4 12 19 65 11 90 -15z m-104 -5
c13 -10 19 -19 13 -20 -7 0 -22 9 -35 20 -13 10 -19 19 -13 20 7 0 22 -9 35
-20z m45 -54 c-4 -18 -15 -41 -26 -51 -25 -23 -25 -19 0 30 11 22 20 48 21 60
0 11 3 14 6 7 3 -7 2 -28 -1 -46z m-81 36 c-23 -20 -85 -53 -85 -45 0 5 17 19
38 31 37 22 65 30 47 14z m28 -104 c32 -30 25 -37 -11 -12 -21 15 -53 64 -51
81 0 4 8 -3 17 -17 9 -14 30 -37 45 -52z m55 -35 c-56 -56 -57 -57 -78 -38
-23 21 -19 35 5 15 14 -12 23 -7 63 33 26 26 51 47 57 47 5 0 -16 -26 -47 -57z"/>
</g>
</svg>
